<?xml version="1.0" encoding="UTF-8" standalone="no"?>
<!DOCTYPE svg PUBLIC "-//W3C//DTD SVG 1.1//EN" "http://www.w3.org/Graphics/SVG/1.1/DTD/svg11.dtd">
<svg width="100%" height="100%" viewBox="0 0 5600 792" version="1.1" xmlns="http://www.w3.org/2000/svg" xmlns:xlink="http://www.w3.org/1999/xlink" xml:space="preserve" xmlns:serif="http://www.serif.com/" style="fill-rule:evenodd;clip-rule:evenodd;stroke-linejoin:round;stroke-miterlimit:2;">
    <g transform="matrix(4.16667,0,0,4.16667,0,0)">
        <rect x="1039.31" y="101.587" width="9.73" height="13.268" style="fill:rgb(0,174,239);"/>
        <rect x="1087.18" y="114.855" width="11.61" height="9.396" style="fill:rgb(0,174,239);"/>
        <rect x="1107.57" y="23.648" width="8.77" height="7.462" style="fill:rgb(0,174,239);"/>
        <rect x="1048.6" y="157.419" width="9.73" height="13.948" style="fill:rgb(0,174,239);"/>
        <rect x="1098.79" y="11.483" width="8.78" height="12.165" style="fill:rgb(0,174,239);"/>
        <path d="M1057.89,101.867L1057.89,114.855L1067.28,114.855L1067.28,124.251L1078.89,124.251L1078.89,114.855L1069.5,114.855L1069.5,101.867L1057.89,101.867Z" style="fill:rgb(0,174,239);"/>
        <path d="M1067.28,176.766L1049.04,176.766L1049.04,187.298L1069.5,187.298L1069.5,180.148L1078.34,180.148L1078.34,167.368L1067.28,167.368L1067.28,176.766Z" style="fill:rgb(0,174,239);"/>
        <path d="M1067.84,17.566L1078.34,17.566L1078.34,23.648L1087.18,23.648L1087.18,11.483L1078.34,11.483L1078.34,2.995L1064.52,2.995L1064.52,11.483L1057.89,11.483L1057.89,23.648L1067.84,23.648L1067.84,17.566Z" style="fill:rgb(0,174,239);"/>
        <rect x="1049.04" y="56.812" width="9.95" height="9.407" style="fill:rgb(0,174,239);"/>
        <path d="M1087.22,41.335L1087.18,31.11L1078.34,31.11L1078.34,38.57L1067.28,38.57L1067.28,50.733L1078.89,50.733L1078.89,60.682L1087.18,60.682L1087.22,47.692L1078.34,47.692L1078.34,41.335L1087.22,41.335Z" style="fill:rgb(0,174,239);"/>
        <path d="M1087.18,2.995L1087.18,11.488L1087.22,11.488L1087.22,11.483L1098.79,11.483L1098.79,2.995L1087.18,2.995Z" style="fill:rgb(0,174,239);"/>
        <path d="M1049.04,136.139L1057.89,136.139L1057.89,119.277L1049.04,119.277L1049.04,136.139Z" style="fill:rgb(0,174,239);"/>
        <path d="M1253.02,86.664L1245.84,86.664L1245.84,79.201L1253.02,79.201L1253.02,86.664ZM1245.84,119.277L1236.44,119.277L1236.44,114.855L1245.84,114.855L1245.84,119.277ZM1236.44,50.733L1245.84,50.733L1245.84,60.682L1236.44,60.682L1236.44,50.733ZM1226.49,31.11L1218.2,31.11L1218.2,25.306L1226.49,25.306L1226.49,31.11ZM1226.49,79.201L1218.2,79.201L1218.2,70.632L1226.49,70.632L1226.49,79.201ZM1218.2,101.867L1203.54,101.867L1203.54,97.115L1218.2,97.115L1218.2,101.867ZM1218.2,130.885L1207.69,130.885L1207.69,124.251L1218.2,124.251L1218.2,130.885ZM1213.22,174.556L1207.69,174.556L1207.69,170.718L1213.22,170.718L1213.22,174.556ZM1199.4,151.338L1199.4,141.387L1207.69,141.387L1207.69,151.338L1199.4,151.338ZM1188.34,104.352L1188.34,97.115L1199.4,97.115L1199.4,104.352L1188.34,104.352ZM1188.34,124.251L1178.95,124.251L1178.95,117.065L1188.34,117.065L1188.34,124.251ZM1188.34,157.419L1176.73,157.419L1176.73,151.338L1188.34,151.338L1188.34,157.419ZM1167.68,141.387L1167.68,133.649L1176.73,133.649L1176.73,141.387L1167.68,141.387ZM1167.68,167.368L1159.05,167.368L1159.05,163.362L1167.68,163.362L1167.68,167.368ZM1158.63,124.251L1166.78,124.251L1166.78,128.954L1158.63,128.954L1158.63,124.251ZM1158.63,141.387L1147.99,141.387L1147.99,133.649L1158.63,133.649L1158.63,141.387ZM1158.63,176.766L1150.48,176.766L1150.48,167.368L1158.63,167.368L1158.63,176.766ZM1147.99,167.368L1132.51,167.368L1132.51,151.338L1138.59,151.338L1138.59,163.362L1147.99,163.362L1147.99,167.368ZM1129.75,124.251L1135.55,124.251L1135.55,130.885L1129.75,130.885L1129.75,124.251ZM1126.43,68.145L1126.43,63.172L1138.59,63.172L1138.59,68.145L1126.43,68.145ZM1116.34,56.812L1116.34,75.605L1107.57,75.605L1107.57,50.733L1126.43,50.733L1126.43,56.812L1116.34,56.812ZM1129.75,41.335L1138.59,41.335L1138.59,47.692L1129.75,47.692L1129.75,41.335ZM1138.59,17.566L1148.82,17.566L1148.82,27.378L1138.59,27.378L1138.59,17.566ZM1159.05,25.306L1167.68,25.306L1167.68,31.11L1159.05,31.11L1159.05,38.57L1147.99,38.57L1147.99,31.11L1159.05,31.11L1159.05,25.306ZM1166.78,14.8L1176.73,14.8L1176.73,22.472L1166.78,22.472L1166.78,14.8ZM1178.95,41.335L1167.68,41.335L1167.68,34.841L1178.95,34.841L1178.95,41.335ZM1178.95,25.306L1188.34,25.306L1188.34,31.11L1178.95,31.11L1178.95,25.306ZM1166.78,56.812L1166.78,50.733L1176.73,50.733L1176.73,56.812L1166.78,56.812ZM1145.78,56.812L1145.78,50.733L1159.05,50.733L1159.05,56.812L1145.78,56.812ZM1166.78,94.681L1166.78,86.664L1150.48,86.664L1150.48,79.201L1141.91,79.201L1141.91,70.632L1159.05,70.632L1159.05,79.201L1166.78,79.201L1166.78,86.664L1176.73,86.664L1176.73,94.681L1166.78,94.681ZM1156.28,117.065L1156.28,124.251L1147.99,124.251L1147.99,117.065L1156.28,117.065ZM1138.59,104.352L1138.59,97.115L1159.05,97.115L1159.05,104.352L1167.68,104.352L1167.68,112.643L1159.05,112.643L1159.05,104.352L1138.59,104.352ZM1176.73,79.201L1176.73,68.145L1188.34,68.145L1188.34,79.201L1194.98,79.201L1194.98,84.451L1188.34,84.451L1188.34,79.201L1176.73,79.201ZM1199.4,34.841L1203.54,34.841L1203.54,41.335L1199.4,41.335L1199.4,47.692L1188.34,47.692L1188.34,41.335L1199.4,41.335L1199.4,34.841ZM1213.22,60.682L1213.22,68.145L1203.54,68.145L1203.54,60.682L1213.22,60.682ZM1330.42,103.351C1329.82,96.899 1309.07,81.014 1298.22,69.794C1297.77,69.163 1299.52,64.715 1299.09,64.052C1304.22,24.414 1272.33,6.897 1228.88,3.239L1228.88,2.995L1207.69,2.995L1207.69,11.483L1199.4,11.483L1199.4,2.995L1166.78,2.995L1166.78,11.483L1159.05,11.483L1159.05,2.995L1133.89,2.995L1133.89,11.483L1116.34,11.483L1116.34,23.648L1123.67,23.648L1123.67,38.57L1107.57,38.57L1107.57,31.11L1098.79,31.11L1098.79,41.335L1107.57,41.335L1107.57,47.692L1098.79,47.692L1098.79,65.657L1087.22,65.657L1087.18,75.605L1075.57,75.605L1075.57,84.451L1057.89,84.451L1057.89,97.115L1069.5,97.115L1069.5,88.873L1087.18,88.873L1087.18,108.5L1098.79,108.5L1098.79,114.855L1107.57,114.855L1107.57,88.873L1096.58,88.873L1096.58,95.595L1089.39,95.595L1089.39,81.826L1107.57,81.826L1107.57,88.873L1120.01,88.873L1120.01,79.201L1135.55,79.201L1135.55,84.451L1126.43,84.451L1126.43,94.681L1117,94.681L1117,104.352L1135.55,104.352L1135.55,114.855L1123.67,114.855L1123.67,120.66L1116.34,120.66L1116.34,114.855L1107.57,114.855L1107.57,124.251L1116.34,124.251L1116.34,141.387L1126.43,141.387L1126.43,146.362L1116.34,146.362L1116.34,167.368L1107.57,167.368L1107.57,159.355L1087.22,159.355L1087.22,144.705L1098.79,144.705L1098.79,152.03L1107.57,152.03L1107.57,141.387L1098.79,141.387L1098.79,133.649L1087.22,133.649L1087.22,141.387L1067.28,141.387L1067.28,151.338L1078.34,151.338L1078.34,161.289L1087.18,161.289L1087.18,171.367L1096.58,171.367L1096.58,176.766L1087.18,176.766L1087.18,187.298L1096.58,187.298L1096.58,182.294L1107.57,182.294L1107.57,187.298L1129.75,187.298L1129.75,182.294L1138.59,182.294L1138.59,187.298L1158.63,187.298L1158.63,180.148L1176.73,180.148L1176.73,187.298L1199.4,187.298L1199.4,180.148L1207.69,180.148L1207.69,187.298L1254.84,187.298C1256.94,159.847 1328.86,181.08 1316.69,154.141C1308.24,134.997 1319.33,139.128 1320.79,128.363C1320.84,122.724 1315.01,118.109 1312.97,112.767C1320.78,111.257 1331.03,109.807 1330.42,103.351Z" style="fill:rgb(0,174,239);"/>
        <rect x="0" y="7.674" width="26.774" height="180.027" style="fill:rgb(0,174,239);fill-rule:nonzero;"/>
        <path d="M45.728,187.701L45.728,7.53L121.945,7.53L121.945,34.829L72.503,34.829L72.503,83.967L108.628,83.967L108.628,111.264L72.503,111.264L72.503,160.402L121.945,160.402L121.945,187.701L45.728,187.701Z" style="fill:rgb(0,174,239);fill-rule:nonzero;"/>
        <path d="M135.374,187.701L135.374,7.53L211.59,7.53L211.59,34.829L162.148,34.829L162.148,83.967L198.273,83.967L198.273,111.264L162.148,111.264L162.148,160.402L211.59,160.402L211.59,187.701L135.374,187.701Z" style="fill:rgb(0,174,239);fill-rule:nonzero;"/>
        <path d="M225.018,187.701L225.018,7.53L301.234,7.53L301.234,34.829L251.793,34.829L251.793,83.967L287.918,83.967L287.918,111.264L251.793,111.264L251.793,160.402L301.234,160.402L301.234,187.701L225.018,187.701Z" style="fill:rgb(0,174,239);fill-rule:nonzero;"/>
        <rect x="341.517" y="7.674" width="26.775" height="180.027" style="fill:rgb(65,64,66);fill-rule:nonzero;"/>
        <path d="M417.306,7.53L452.838,128.616L452.838,7.53L479.612,7.53L479.612,187.701L450.854,187.701L414.021,72.329L414.021,187.701L387.246,187.701L387.246,7.53L417.306,7.53Z" style="fill:rgb(65,64,66);fill-rule:nonzero;"/>
        <path d="M525.34,187.701L498.564,187.701L498.564,7.53L574.78,7.53L574.78,34.829L525.34,34.829L525.34,83.967L561.464,83.967L561.464,111.264L525.34,111.264L525.34,187.701Z" style="fill:rgb(65,64,66);fill-rule:nonzero;"/>
        <path d="M645.159,47.903C645.159,43.593 643.671,39.93 640.696,36.912C637.722,33.895 634.108,32.387 629.858,32.387C625.609,32.387 621.972,33.895 618.95,36.912C615.927,39.93 614.417,43.593 614.417,47.903L614.417,146.465C614.417,150.776 615.927,154.44 618.95,157.457C621.972,160.474 625.609,161.983 629.858,161.983C634.108,161.983 637.722,160.474 640.696,157.457C643.671,154.44 645.159,150.776 645.159,146.465L645.159,47.903ZM630.567,5.375C642.372,5.375 652.406,9.591 660.671,18.019C668.935,26.448 673.066,36.603 673.066,48.478L673.066,146.752C673.066,158.727 668.91,168.904 660.601,177.284C652.288,185.667 642.276,189.856 630.567,189.856C618.761,189.856 608.751,185.642 600.534,177.212C592.317,168.785 588.209,158.63 588.209,146.752L588.209,48.478C588.209,36.506 592.364,26.329 600.676,17.947C608.985,9.566 618.95,5.375 630.567,5.375Z" style="fill:rgb(65,64,66);fill-rule:nonzero;"/>
        <path d="M733.67,190C721.863,190 711.829,185.81 703.565,177.428C695.301,169.047 691.17,158.918 691.17,147.041L691.17,48.766C691.17,36.793 695.325,26.617 703.637,18.234C711.946,9.854 721.958,5.662 733.67,5.662C745.475,5.662 755.486,9.879 763.703,18.306C771.92,26.736 776.027,36.89 776.027,48.766L776.027,69.312L748.262,69.312L748.262,48.19C748.262,43.881 746.749,40.194 743.729,37.128C740.704,34.063 737.069,32.53 732.819,32.53C728.57,32.53 724.957,34.063 721.982,37.128C719.008,40.194 717.52,43.881 717.52,48.19L717.52,146.752C717.52,151.063 719.008,154.727 721.982,157.744C724.957,160.761 728.57,162.27 732.819,162.27C737.069,162.27 740.704,160.761 743.729,157.744C746.749,154.727 748.262,151.063 748.262,146.752L748.262,121.897L776.027,121.897L776.027,147.041C776.027,159.015 771.871,169.167 763.562,177.5C755.249,185.833 745.286,190 733.67,190Z" style="fill:rgb(65,64,66);fill-rule:nonzero;"/>
        <path d="M849.521,47.903C849.521,43.593 848.033,39.93 845.059,36.912C842.084,33.895 838.471,32.387 834.221,32.387C829.972,32.387 826.334,33.895 823.313,36.912C820.289,39.93 818.779,43.593 818.779,47.903L818.779,146.465C818.779,150.776 820.289,154.44 823.313,157.457C826.334,160.474 829.972,161.983 834.221,161.983C838.471,161.983 842.084,160.474 845.059,157.457C848.033,154.44 849.521,150.776 849.521,146.465L849.521,47.903ZM834.93,5.375C846.734,5.375 856.769,9.591 865.033,18.019C873.297,26.448 877.429,36.603 877.429,48.478L877.429,146.752C877.429,158.727 873.272,168.904 864.963,177.284C856.65,185.667 846.639,189.856 834.93,189.856C823.123,189.856 813.113,185.642 804.896,177.212C796.68,168.785 792.571,158.63 792.571,146.752L792.571,48.478C792.571,36.506 796.727,26.329 805.038,17.947C813.348,9.566 823.313,5.375 834.93,5.375Z" style="fill:rgb(65,64,66);fill-rule:nonzero;"/>
        <path d="M922.73,187.701L895.955,187.701L895.955,7.53L934.378,7.53L959.331,136.956L983.283,7.53L1020.2,7.53L1020.2,187.701L993.421,187.701L993.421,74.483L970.19,187.701L948.657,187.701L922.73,74.771L922.73,187.701Z" style="fill:rgb(65,64,66);fill-rule:nonzero;"/>
        <path d="M1309.55,5.307L1304.54,5.307L1304.54,0.506L1319.24,0.506L1319.24,5.307L1314.25,5.307L1314.25,32.164L1309.55,32.164L1309.55,5.307Z" style="fill:rgb(0,174,239);fill-rule:nonzero;"/>
        <path d="M1326.86,32.164L1322.15,32.164L1322.15,0.48L1328.9,0.48L1333.29,23.24L1337.5,0.48L1344,0.48L1344,32.164L1339.29,32.164L1339.29,12.254L1335.2,32.164L1331.42,32.164L1326.86,12.305L1326.86,32.164Z" style="fill:rgb(0,174,239);fill-rule:nonzero;"/>
    </g>
</svg>
